# xmcd CD database file
#
# Track frame offsets:
#	150
#	17767
#	33577
#	50592
#	71327
#
# Disc length: 1338 seconds
#
# Revision: 0
# Processed by: cddbd v1.5.1PL0 Copyright (c) Steve Scherf et al.
# Submitted via: CDex 1.51
#
DISCID=3c053805
DTITLE=SPARKS GO GO - 月光
DYEAR=2005
DGENRE=Rock
TTITLE0=Sunday People
TTITLE1=Brand New Boots
TTITLE2=記憶
TTITLE3=夕陽が泣いている
TTITLE4=月光
EXTD=YEAR: 2005
EXTT0=
EXTT1=
EXTT2=
EXTT3=
EXTT4=
PLAYORDER=
